<?xml version="1.0" standalone="no"?>
<!DOCTYPE svg PUBLIC "-//W3C//DTD SVG 20010904//EN"
 "http://www.w3.org/TR/2001/REC-SVG-20010904/DTD/svg10.dtd">
<svg version="1.0" xmlns="http://www.w3.org/2000/svg"
 width="357.000000pt" height="357.000000pt" viewBox="0 0 357.000000 357.000000"
 preserveAspectRatio="xMidYMid meet">
<metadata>
Created by potrace 1.11, written by Peter Selinger 2001-2013
</metadata>
<g transform="translate(0.000000,357.000000) scale(0.100000,-0.100000)"
fill="#000000" stroke="none">
<path d="M1815 3178 c-33 -69 -79 -108 -152 -129 -53 -14 -59 -22 -68 -84 -4
-27 -18 -86 -32 -130 -28 -88 -36 -110 -188 -515 -236 -627 -565 -1431 -674
-1647 -69 -139 -148 -207 -316 -274 -119 -47 -155 -67 -167 -94 -16 -35 -4
-47 92 -97 31 -16 198 -16 422 0 92 7 261 9 405 6 272 -6 298 -2 298 46 0 35
-76 82 -193 121 -102 34 -151 71 -177 132 -29 70 -16 140 95 501 73 237 88
270 131 285 48 17 860 15 881 -1 10 -8 41 -102 76 -228 108 -384 124 -504 80
-571 -29 -43 -123 -91 -215 -108 -37 -8 -82 -19 -98 -26 -67 -27 -86 -77 -37
-98 15 -7 40 -21 57 -32 28 -19 46 -20 385 -20 195 0 459 -7 585 -14 269 -16
315 -10 315 38 0 15 -8 35 -17 43 -40 35 -133 78 -210 97 -106 26 -149 49
-202 106 -78 85 -111 168 -357 890 -164 480 -400 1197 -567 1715 -22 70 -39
106 -49 108 -9 2 -18 -5 -20 -15 -3 -13 -8 -7 -14 17 -16 54 -35 48 -69 -22z
m20 -833 c36 -115 70 -221 75 -235 7 -21 93 -289 161 -505 28 -91 28 -107 -1
-116 -37 -10 -728 -11 -734 0 -5 8 43 140 327 904 96 256 75 261 172 -48z"/>
</g>
</svg>
